<?xml version="1.0" encoding="utf-8"?>
<!-- Generator: Adobe Illustrator 23.0.1, SVG Export Plug-In . SVG Version: 6.00 Build 0)  -->
<svg version="1.1" id="Camada_1" xmlns="http://www.w3.org/2000/svg" xmlns:xlink="http://www.w3.org/1999/xlink" x="0px" y="0px"
	 viewBox="0 0 841.89 317.12" style="enable-background:new 0 0 841.89 317.12;" xml:space="preserve">
<style type="text/css">
	.st0{fill:#010202;}
</style>
<g>
	<g>
		<path class="st0" d="M349.06,240.34l-4.58-11.62l-4.87,11.62H349.06z M346.99,223.14c0.41,1.46,0.94,2.81,1.46,4.16l6.67,17.12
			c1.76,4.58,2.5,4.68,3.71,4.68h0.45v1.09h-10.27v-1.09h0.83c1.68,0,2.02-0.22,2.02-0.93c0-0.41-0.11-0.93-0.41-1.72l-1.95-5.03
			h-10.34l-1.31,3.15c-0.78,1.88-1.01,2.73-1.01,3.33c0,1.2,1.12,1.2,2.48,1.2h0.49v1.09h-7.72v-1.09h0.42
			c1.12,0,2.06-0.37,2.95-2.58l8.17-19.6c0.53-1.23,1.02-2.51,1.36-3.78H346.99z"/>
		<path class="st0" d="M377.17,229.81h-1.31c-0.08-3.33-2.52-5.81-5.85-5.81c-3.18,0-5.81,1.69-5.81,5.14
			c0,6.07,14.28,3.9,14.28,13.6c0,5.17-4.24,8.06-9.15,8.06c-1.57,0-2.88-0.26-3.86-0.49c-1.01-0.23-1.69-0.45-2.03-0.45
			c-0.64,0-0.97,0.34-1.08,0.72h-1.31v-7.46h1.31c0.79,3.93,2.7,6.6,7.01,6.6c3.44,0,5.92-1.92,5.92-5.55
			c0-6.63-14.28-4.98-14.28-13.19c0-5.14,3.9-8.05,8.88-8.05c1.98,0,4.05,1.08,5.28,1.08c0.56,0,0.71-0.29,0.86-0.86h1.13V229.81z"
			/>
		<path class="st0" d="M398.79,229.81h-1.31c-0.08-3.33-2.51-5.81-5.85-5.81c-3.19,0-5.81,1.69-5.81,5.14
			c0,6.07,14.27,3.9,14.27,13.6c0,5.17-4.23,8.06-9.14,8.06c-1.57,0-2.88-0.26-3.86-0.49c-1.01-0.23-1.69-0.45-2.02-0.45
			c-0.64,0-0.97,0.34-1.08,0.72h-1.32v-7.46h1.32c0.78,3.93,2.7,6.6,7.01,6.6c3.44,0,5.92-1.92,5.92-5.55
			c0-6.63-14.28-4.98-14.28-13.19c0-5.14,3.9-8.05,8.88-8.05c1.99,0,4.05,1.08,5.29,1.08c0.55,0,0.71-0.29,0.86-0.86h1.12V229.81z"
			/>
		<path class="st0" d="M403.93,249.1h1.49c0.94,0,1.54-0.22,1.54-2.4v-19.59c0-2.17-0.19-2.51-1.72-2.51h-1.31v-1.09h20.49v6.22
			h-1.31c0-3.67-1.87-5.13-5.47-5.13h-6.48v11.51h5.58c2.52,0,3.52-1.76,3.52-4.05h1.31v9.25h-1.31c0-2.44-0.9-4.13-3.52-4.13h-5.58
			v11.92h6.86c3.52,0,5.55-1.61,5.55-5.24h1.31v6.33h-20.94V249.1z"/>
		<path class="st0" d="M428.43,249.1h1.23c1.61,0,1.61-1.04,1.61-4.27v-18.25c0-1.38-0.15-1.99-1.57-1.99h-1.27v-1.09h7.34
			c0.26,0.83,0.82,2.48,1.5,3.9l6.79,15.66l6.82-16.04c0.6-1.42,1.04-2.7,1.27-3.52h7.42v1.09h-1.69c-1.23,0-1.31,0.86-1.31,2.25
			v18.67c0,2.69,0,3.59,1.68,3.59h1.31v1.09h-10.23v-1.09h1.31c1.49,0,1.72-0.3,1.72-3.59v-17.92h-0.07l-9.03,21.02h-1.35
			l-9.03-21.02h-0.07v17.24c0,3.15,0.11,4.27,1.94,4.27h1.39v1.09h-7.71V249.1z"/>
		<path class="st0" d="M469.69,249.1h2.78c4.38,0,6.89-2.21,6.89-6.44c0-4.61-3.52-5.85-7.54-5.96h-2.14V249.1z M469.69,235.61h1.99
			c4.57,0,6.7-1.53,6.7-6.03c0-3.37-2.73-4.98-5.43-4.98h-3.26V235.61z M462.46,249.1h1.61c1.35,0,1.42-0.67,1.42-3.86v-16.83
			c0-3.64-0.15-3.82-1.42-3.82h-1.61v-1.09h11.99c4.42,0,8.58,1.76,8.58,6.37c0,3.56-3.67,5.59-6.75,6.18v0.08
			c3.53,0.19,7.72,2.62,7.72,6.56c0,4.43-4.98,7.49-8.65,7.49h-12.89V249.1z"/>
		<path class="st0" d="M487.98,249.1h1.17c1.53,0,1.91-0.56,1.91-1.87v-20.43c0-1.95-0.53-2.21-2.06-2.21h-1.01v-1.09h10.3v1.09
			h-1.2c-1.69,0-1.83,0.6-1.83,2.21v22.29h5.73c2.92,0,5.55-1.98,5.55-5.73h1.31v6.82h-19.86V249.1z"/>
		<path class="st0" d="M510.58,249.1h1.5c0.93,0,1.54-0.22,1.54-2.4v-19.59c0-2.17-0.19-2.51-1.73-2.51h-1.31v-1.09h20.5v6.22h-1.31
			c0-3.67-1.88-5.13-5.47-5.13h-6.48v11.51h5.58c2.51,0,3.52-1.76,3.52-4.05h1.31v9.25h-1.31c0-2.44-0.9-4.13-3.52-4.13h-5.58v11.92
			h6.85c3.52,0,5.55-1.61,5.55-5.24h1.31v6.33h-20.95V249.1z"/>
		<path class="st0" d="M535.42,249.1h1.17c1.53,0,1.91-0.56,1.91-1.87v-20.43c0-1.95-0.53-2.21-2.06-2.21h-1.02v-1.09h10.34v1.09
			h-1.01c-1.53,0-2.06,0.26-2.06,2.21v20.43c0,1.31,0.38,1.87,1.91,1.87h1.16v1.09h-10.34V249.1z"/>
		<path class="st0" d="M563.87,240.34l-4.57-11.62l-4.87,11.62H563.87z M561.81,223.14c0.41,1.46,0.94,2.81,1.46,4.16l6.67,17.12
			c1.76,4.58,2.51,4.68,3.71,4.68h0.45v1.09h-10.27v-1.09h0.83c1.69,0,2.02-0.22,2.02-0.93c0-0.41-0.11-0.93-0.41-1.72l-1.95-5.03
			h-10.34l-1.31,3.15c-0.78,1.88-1.01,2.73-1.01,3.33c0,1.2,1.12,1.2,2.48,1.2h0.48v1.09h-7.72v-1.09h0.4
			c1.13,0,2.07-0.37,2.97-2.58l8.17-19.6c0.51-1.23,1.01-2.51,1.34-3.78H561.81z"/>
		<path class="st0" d="M586.43,249.1h1.16c1.54,0,1.92-0.56,1.92-1.87v-20.43c0-1.95-0.53-2.21-2.06-2.21h-1.02v-1.09h10.31v1.09
			h-1.2c-1.68,0-1.84,0.6-1.84,2.21v22.29h5.73c2.92,0,5.55-1.98,5.55-5.73h1.31v6.82h-19.86V249.1z"/>
		<path class="st0" d="M609.03,249.1h1.5c0.93,0,1.54-0.22,1.54-2.4v-19.59c0-2.17-0.19-2.51-1.73-2.51h-1.31v-1.09h20.5v6.22h-1.31
			c0-3.67-1.88-5.13-5.47-5.13h-6.48v11.51h5.59c2.51,0,3.52-1.76,3.52-4.05h1.31v9.25h-1.31c0-2.44-0.9-4.13-3.52-4.13h-5.59v11.92
			h6.86c3.52,0,5.55-1.61,5.55-5.24h1.31v6.33h-20.94V249.1z"/>
		<path class="st0" d="M654.86,230.29h-1.31c-0.3-3.67-2.92-6.3-6.68-6.3c-6.82,0-7.9,7.76-7.9,13.08c0,5.62,1.12,12.44,7.46,12.63
			c2.66,0.08,5.28-1.5,5.21-5.21v-3.04c0-1.42-0.37-1.95-1.35-1.95h-1.53v-1.09h9.29v1.09h-1.01c-1.2,0-1.42,0.49-1.42,2.36v8.7
			h-1.06c-0.11-0.45-0.29-0.9-1.19-0.9c-1.24,0-2.97,1.12-6.98,1.12c-8.99,0-12.06-6.15-12.06-14.2c0-7.34,4.45-13.68,12.25-13.68
			c1.88,0,3.15,0.3,4.08,0.6c0.97,0.3,1.65,0.59,2.25,0.59c0.41,0,0.59-0.4,0.64-0.97h1.31V230.29z"/>
		<path class="st0" d="M660.37,249.1h1.17c1.54,0,1.91-0.56,1.91-1.87v-20.43c0-1.95-0.53-2.21-2.06-2.21h-1.02v-1.09h10.35v1.09
			h-1.02c-1.53,0-2.06,0.26-2.06,2.21v20.43c0,1.31,0.38,1.87,1.92,1.87h1.16v1.09h-10.35V249.1z"/>
		<path class="st0" d="M690.43,229.81h-1.31c-0.08-3.33-2.51-5.81-5.85-5.81c-3.19,0-5.81,1.69-5.81,5.14
			c0,6.07,14.28,3.9,14.28,13.6c0,5.17-4.23,8.06-9.15,8.06c-1.57,0-2.88-0.26-3.86-0.49c-1.01-0.23-1.69-0.45-2.02-0.45
			c-0.64,0-0.98,0.34-1.08,0.72h-1.31v-7.46h1.31c0.78,3.93,2.7,6.6,7.01,6.6c3.44,0,5.92-1.92,5.92-5.55
			c0-6.63-14.28-4.98-14.28-13.19c0-5.14,3.9-8.05,8.88-8.05c1.99,0,4.05,1.08,5.29,1.08c0.56,0,0.71-0.29,0.86-0.86h1.12V229.81z"
			/>
		<path class="st0" d="M695.3,249.1h1.16c1.54,0,1.91-0.56,1.91-1.87v-20.43c0-1.95-0.53-2.21-2.06-2.21h-1.01v-1.09h10.3v1.09h-1.2
			c-1.69,0-1.84,0.6-1.84,2.21v22.29h5.73c2.92,0,5.55-1.98,5.55-5.73h1.31v6.82H695.3V249.1z"/>
		<path class="st0" d="M732.77,240.34l-4.58-11.62l-4.87,11.62H732.77z M730.71,223.14c0.41,1.46,0.94,2.81,1.47,4.16l6.66,17.12
			c1.76,4.58,2.51,4.68,3.71,4.68H743v1.09h-10.26v-1.09h0.83c1.68,0,2.03-0.22,2.03-0.93c0-0.41-0.12-0.93-0.41-1.72l-1.95-5.03
			h-10.34l-1.31,3.15c-0.79,1.88-1.02,2.73-1.02,3.33c0,1.2,1.13,1.2,2.48,1.2h0.48v1.09h-7.72v-1.09h0.42
			c1.13,0,2.06-0.37,2.96-2.58l8.17-19.6c0.52-1.23,1.02-2.51,1.35-3.78H730.71z"/>
		<path class="st0" d="M747.05,249.1h1.76c1.54,0,1.54-0.71,1.54-3.94V224.6h-2.03c-3.33,0-5.73,1.91-5.81,5.43h-1.31v-6.51h22.48
			v6.51h-1.31c-0.07-3.51-2.47-5.43-5.81-5.43h-2.03v20.57c0,3.23,0,3.94,1.54,3.94h1.76v1.09h-10.79V249.1z"/>
		<path class="st0" d="M766.5,249.1h1.16c1.54,0,1.91-0.56,1.91-1.87v-20.43c0-1.95-0.53-2.21-2.06-2.21h-1.01v-1.09h10.34v1.09
			h-1.01c-1.54,0-2.06,0.26-2.06,2.21v20.43c0,1.31,0.38,1.87,1.91,1.87h1.16v1.09H766.5V249.1z"/>
		<path class="st0" d="M804.28,224.6h-0.6c-1.5,0-1.84,0.9-3.37,4.91l-7.19,18.96c-0.26,0.71-0.49,1.38-0.75,2.1h-2.1
			c-0.56-1.91-1.31-3.79-2.06-5.77l-6.33-16.38c-1.16-3.07-1.46-3.82-2.74-3.82h-0.97v-1.09h10.34v1.09H787
			c-0.83,0-1.39,0.34-1.39,1.08c0,0.6,0.19,1.27,1.2,3.94l5.92,15.59l6.22-16.68c0.41-1.12,0.71-2.1,0.71-2.85
			c0-0.78-0.49-1.08-1.54-1.08h-1.53v-1.09h7.68V224.6z"/>
		<path class="st0" d="M817.29,240.34l-4.58-11.62l-4.87,11.62H817.29z M815.23,223.14c0.41,1.46,0.94,2.81,1.46,4.16l6.67,17.12
			c1.76,4.58,2.51,4.68,3.71,4.68h0.44v1.09h-10.27v-1.09h0.83c1.68,0,2.02-0.22,2.02-0.93c0-0.41-0.12-0.93-0.41-1.72l-1.95-5.03
			H807.4l-1.31,3.15c-0.79,1.88-1.02,2.73-1.02,3.33c0,1.2,1.13,1.2,2.47,1.2h0.49v1.09h-7.72v-1.09h0.42
			c1.13,0,2.06-0.37,2.95-2.58l8.18-19.6c0.52-1.23,1.01-2.51,1.34-3.78H815.23z"/>
		<path class="st0" d="M340.77,296.36h3.26c7.19,0,8.99-6.22,8.99-12.18c0-6.33-1.87-12.32-9.22-12.32h-3.04V296.36z M333.51,270.76
			h10.6c8.69,0,13.56,5.02,13.56,13.61c0,9.33-6.9,13.08-13.19,13.08h-10.98v-1.09h1.57c1.31,0,1.5-0.38,1.5-4.08v-16.94
			c0-2.55-0.15-3.48-1.38-3.48h-1.69V270.76z"/>
		<path class="st0" d="M372.86,296.96c6.22,0,6.67-8.43,6.67-12.86c0-4.42-0.45-12.85-6.67-12.85c-6.22,0-6.67,8.43-6.67,12.85
			C366.19,288.53,366.63,296.96,372.86,296.96 M372.86,270.16c7.76,0,11.32,6.94,11.32,13.94c0,7.01-3.56,13.94-11.32,13.94
			c-7.76,0-11.32-6.93-11.32-13.94C361.54,277.1,365.09,270.16,372.86,270.16"/>
		<path class="st0" d="M406.06,282.87h2.92c3.16,0,5.81-1.46,5.81-5.51c0-4.12-2.21-5.5-5.92-5.5h-2.82V282.87z M398.79,296.36h1.16
			c1.54,0,1.91-0.57,1.91-1.88v-20.42c0-1.95-0.52-2.21-2.06-2.21h-1.02v-1.09h12.22c4.42,0,8.43,1.58,8.43,5.92
			c0,3.29-3.26,6.07-6.56,6.67v0.08c4.57,0.9,5.36,1.86,5.55,6.89l0.19,4.65c0.04,0.59,0.19,1.31,0.89,1.31
			c0.94,0,1.47-0.91,1.8-1.91l1.09,0.49c-0.94,1.95-2.17,3.19-4.24,3.19c-3.26,0-3.94-2.59-4.05-5.06l-0.27-5.02
			c-0.15-2.96-1.72-4.01-5.32-4.01h-2.48v10.15c0,1.65,0.15,2.25,1.84,2.25h1.2v1.09h-10.31V296.36z"/>
		<path class="st0" d="M424.58,296.36h1.16c1.53,0,1.91-0.57,1.91-1.88v-20.42c0-1.95-0.52-2.21-2.06-2.21h-1.01v-1.09h10.34v1.09
			h-1.01c-1.54,0-2.07,0.25-2.07,2.21v20.42c0,1.31,0.38,1.88,1.91,1.88h1.17v1.09h-10.34V296.36z"/>
		<path class="st0" d="M449.64,296.96c6.22,0,6.67-8.43,6.67-12.86c0-4.42-0.45-12.85-6.67-12.85c-6.22,0-6.67,8.43-6.67,12.85
			C442.97,288.53,443.43,296.96,449.64,296.96 M449.64,270.16c7.76,0,11.32,6.94,11.32,13.94c0,7.01-3.56,13.94-11.32,13.94
			c-7.76,0-11.32-6.93-11.32-13.94C438.33,277.1,441.89,270.16,449.64,270.16"/>
		<path class="st0" d="M482.44,296.36h3.26c7.2,0,9-6.22,9-12.18c0-6.33-1.88-12.32-9.22-12.32h-3.03V296.36z M475.17,270.76h10.61
			c8.69,0,13.56,5.02,13.56,13.61c0,9.33-6.9,13.08-13.19,13.08h-10.98v-1.09h1.57c1.31,0,1.5-0.38,1.5-4.08v-16.94
			c0-2.55-0.15-3.48-1.38-3.48h-1.69V270.76z"/>
		<path class="st0" d="M503.01,296.36h1.5c0.93,0,1.54-0.22,1.54-2.4v-19.6c0-2.17-0.19-2.5-1.72-2.5h-1.31v-1.09h20.49v6.23h-1.31
			c0-3.68-1.87-5.13-5.47-5.13h-6.48v11.5h5.59c2.51,0,3.52-1.76,3.52-4.04h1.31v9.25h-1.31c0-2.44-0.9-4.12-3.52-4.12h-5.59v11.92
			h6.86c3.53,0,5.55-1.61,5.55-5.24h1.31v6.33h-20.94V296.36z"/>
		<path class="st0" d="M544.73,270.76h10.53v1.09h-1.57c-1.31,0-1.54,0.52-1.54,4.38v14.69c0,3.82-2.4,7.12-7.95,7.12
			c-1.84,0-4.2-0.38-5.44-0.94v-6.37h1.31c0.08,2.73,0.98,6.22,4.32,6.22c3.11,0,3.56-2.74,3.56-6.34V276.2
			c0-3.83-0.11-4.34-1.8-4.34h-1.42V270.76z"/>
		<path class="st0" d="M572.38,287.59l-4.57-11.62l-4.88,11.62H572.38z M570.32,270.39c0.42,1.47,0.94,2.81,1.46,4.16l6.67,17.12
			c1.77,4.58,2.51,4.68,3.71,4.68h0.45v1.09h-10.26v-1.09h0.82c1.69,0,2.03-0.22,2.03-0.94c0-0.41-0.12-0.93-0.41-1.72l-1.95-5.02
			h-10.34l-1.31,3.15c-0.78,1.88-1.01,2.73-1.01,3.34c0,1.2,1.13,1.2,2.48,1.2h0.48v1.09h-7.71v-1.09h0.4
			c1.12,0,2.06-0.37,2.97-2.59l8.17-19.6c0.52-1.24,1.01-2.51,1.35-3.79H570.32z"/>
		<path class="st0" d="M583.51,296.36h1.31c1.61,0,1.65-1.61,1.65-4.39v-15.02c0-4.76-0.26-5.09-1.61-5.09h-1.35v-1.09h7.31
			l13.45,20.68h0.08v-15.51c0-3.37-0.12-4.08-2.14-4.08h-1.24v-1.09h7.9v1.09h-0.9c-1.91,0-2.1,0.93-2.1,4.08v21.81h-2.4
			l-15.4-23.42h-0.08v17.65c0,2.77,0.04,4.39,1.54,4.39h1.54v1.09h-7.57V296.36z"/>
		<path class="st0" d="M611.88,296.36h1.5c0.93,0,1.54-0.22,1.54-2.4v-19.6c0-2.17-0.18-2.5-1.73-2.5h-1.31v-1.09h20.5v6.23h-1.31
			c0-3.68-1.87-5.13-5.47-5.13h-6.48v11.5h5.59c2.51,0,3.52-1.76,3.52-4.04h1.32v9.25h-1.32c0-2.44-0.89-4.12-3.52-4.12h-5.59v11.92
			h6.86c3.53,0,5.55-1.61,5.55-5.24h1.31v6.33h-20.94V296.36z"/>
		<path class="st0" d="M636.73,296.36h1.17c1.53,0,1.91-0.57,1.91-1.88v-20.42c0-1.95-0.52-2.21-2.06-2.21h-1.01v-1.09h10.34v1.09
			h-1.01c-1.54,0-2.06,0.25-2.06,2.21v20.42c0,1.31,0.38,1.88,1.92,1.88h1.16v1.09h-10.34V296.36z"/>
		<path class="st0" d="M657.31,282.87h2.92c3.15,0,5.81-1.46,5.81-5.51c0-4.12-2.21-5.5-5.92-5.5h-2.81V282.87z M650.04,296.36h1.16
			c1.53,0,1.91-0.57,1.91-1.88v-20.42c0-1.95-0.52-2.21-2.06-2.21h-1.01v-1.09h12.21c4.42,0,8.43,1.58,8.43,5.92
			c0,3.29-3.26,6.07-6.56,6.67v0.08c4.58,0.9,5.36,1.86,5.55,6.89l0.19,4.65c0.04,0.59,0.19,1.31,0.9,1.31
			c0.93,0,1.46-0.91,1.8-1.91l1.09,0.49c-0.93,1.95-2.17,3.19-4.24,3.19c-3.26,0-3.93-2.59-4.05-5.06l-0.26-5.02
			c-0.15-2.96-1.72-4.01-5.32-4.01h-2.47v10.15c0,1.65,0.15,2.25,1.83,2.25h1.2v1.09h-10.3V296.36z"/>
		<path class="st0" d="M687.59,296.96c6.22,0,6.67-8.43,6.67-12.86c0-4.42-0.44-12.85-6.67-12.85c-6.22,0-6.67,8.43-6.67,12.85
			C680.92,288.53,681.37,296.96,687.59,296.96 M687.59,270.16c7.76,0,11.32,6.94,11.32,13.94c0,7.01-3.56,13.94-11.32,13.94
			c-7.76,0-11.32-6.93-11.32-13.94C676.27,277.1,679.83,270.16,687.59,270.16"/>
		<path class="st0" d="M427.46,120.35l-14.5-36.87l-15.42,36.88L427.46,120.35z M396.14,123.72l-6.96,17.63
			c-0.47,1.16-0.57,2.2-0.57,3.02c0,2.9,4.05,3.13,7.88,3.13h1.16v3.36l-23.31,0.01v-3.37c6.5,0,8.93-3.71,11.25-9.27l28.88-71.1
			h4.17l28.99,72.94c1.74,4.4,3.7,7.18,8,7.41h1.74v3.36l-29.69,0.01v-3.36h1.4c2.9,0,7.65-0.12,7.65-3.02c0-1.5-0.58-2.9-1.63-5.45
			l-6.26-15.31L396.14,123.72z"/>
		<path class="st0" d="M507.35,68.25v3.37l-3.48,0c-7.08,0-7.08,2.78-7.08,8l-0.01,67.84l16.83-0.01c12.4,0,18.9-6.03,19.01-17.29
			h4.06v20.65l-60.07,0.01v-3.36h4.52c4.17,0,5.1-1.97,5.1-8.47l0-54.85c0-11.36-0.11-12.52-6.72-12.52h-2.9v-3.36L507.35,68.25z"/>
		<path class="st0" d="M559.29,147.45h4.53c4.18,0,5.1-1.97,5.1-8.47l0.01-54.86c0-11.36-0.12-12.52-6.73-12.52h-2.89v-3.36
			l62.62-0.02l0,19.14h-4.06c0-11.13-6.03-15.77-16.93-15.77l-21.46,0v35.84l14.49-0.01c9.63,0,14.96-2.2,14.96-12.76h4.06v28.53
			h-4.06c0-11.02-6.96-12.41-12.52-12.4h-16.93l-0.01,36.65l20.18-0.01c11.83,0,19.02-2.55,19.6-15.89h4.06v19.25l-64.02,0.02
			V147.45z"/>
		<path class="st0" d="M672.13,105.67h11.25c10.44,0,17.97-7.31,17.98-17.75c0-11.6-7.07-16.35-18.09-16.34h-11.13L672.13,105.67z
			 M651.95,147.43h4.52c4.17,0,5.1-1.97,5.1-8.47l0-54.85c0-11.36-0.11-12.52-6.72-12.52h-2.9v-3.37l30.38,0
			c13.45,0,31.31,2.54,31.31,19.59c0,11.49-10.9,17.52-20.87,19.37v0.23c8.12,1.39,16.23,5.68,16.23,15.07v16.35
			c0,2.55,0,8.01,3.83,8.01c3.59,0,4.41-3.37,5.8-5.8l3.47,1.27c-2.43,5.34-6.26,10.32-12.75,10.33c-8.82,0-10.91-5.34-10.91-14.15
			v-12.06c0-13.1-3.7-17.4-16.58-17.4l-9.74,0.01l0,28.29c0,8.35,0.35,10.09,6.03,10.09l3.59,0v3.36l-29.8,0V147.43z"/>
		<path class="st0" d="M737.17,130.12h4.06c0.35,10.9,3.37,19.14,13.11,19.13c10.67,0,11.71-9.62,11.71-18.1l0-50.55
			c0-6.38,0-9.05-6.03-9.05h-4.52v-3.37l30.96-0.01v3.37h-4.29c-5.56,0-5.56,2.55-5.56,9.05l0,42.55c0,16.24-3.14,29.46-22.62,29.47
			c-5.68,0-11.36-0.7-16.82-3.24L737.17,130.12z"/>
		<path class="st0" d="M828.07,117.12c-3.82,0-6.94-3.11-6.94-6.95c0-3.84,3.13-6.96,6.97-6.97c3.83,0,6.95,3.13,6.95,6.96
			c0,3.84-3.13,6.97-6.97,6.97H828.07z"/>
		<path class="st0" d="M332.56,117.27c-3.84,0-6.97-3.13-6.97-6.97c0-3.84,3.12-6.97,6.97-6.97c3.85,0,6.97,3.13,6.97,6.97
			C339.54,114.14,336.41,117.27,332.56,117.27"/>
	</g>
	<rect x="285.42" y="251.23" class="st0" width="7.35" height="18.82"/>
	<rect x="18.08" y="251.23" class="st0" width="7.32" height="18.81"/>
	<rect x="165.94" y="41.74" class="st0" width="13.3" height="14.18"/>
	<rect x="6.74" y="290.55" class="st0" width="296.92" height="6.96"/>
	<rect x="265.71" y="251.23" class="st0" width="10.08" height="18.81"/>
	<rect x="243.36" y="251.23" class="st0" width="12.73" height="18.81"/>
	<rect x="221.22" y="251.23" class="st0" width="12.53" height="18.81"/>
	<rect x="197.77" y="251.23" class="st0" width="13.83" height="18.81"/>
	<rect x="173.29" y="251.23" class="st0" width="14.86" height="18.81"/>
	<rect x="146.96" y="251.23" class="st0" width="16.71" height="18.81"/>
	<rect x="122.56" y="251.23" class="st0" width="14.79" height="18.81"/>
	<rect x="99.25" y="251.23" class="st0" width="13.68" height="18.81"/>
	<rect x="77.06" y="251.23" class="st0" width="12.57" height="18.81"/>
	<rect x="54.74" y="251.23" class="st0" width="12.7" height="18.81"/>
	<rect x="35.01" y="251.23" class="st0" width="10.11" height="18.81"/>
	<path class="st0" d="M188.82,219.25h-66.42v-6.12h66.42V219.25z M188.82,230.5h-66.42v-6.13h66.42V230.5z"/>
	<path class="st0" d="M246.21,219.05H202.6v-6.14h43.61V219.05z M246.21,230.72H202.6v-6.15h43.61V230.72z"/>
	<path class="st0" d="M285.01,219.06h-25.35v-6.16h25.35V219.06z M285.01,230.73h-25.35v-6.17l25.35,0V230.73z"/>
	<path class="st0" d="M50.77,219.06H25.39v-6.16h25.37V219.06z M50.77,230.73H25.39v-6.17h25.37V230.73z"/>
	<g>
		<path class="st0" d="M166.72,78.9c14.69,43.62,21.66,80.95,21.66,116.75c0,3.59-0.05,7.17-0.15,10.73l-0.02,0.7h-65.86v-0.72
			c-0.11-3.79-0.15-7.22-0.15-10.65c0-36.72,7.03-75.43,21.01-116.81H166.72z"/>
		<path class="st0" d="M194.35,78.9c30.52,34.19,48.25,78.22,51.12,127.19l0.05,1H202.3l0.01-0.75c0.04-2.2,0.08-4.44,0.08-6.46
			c0-44.49-9.52-85.88-27.38-120.97H194.35z"/>
		<path class="st0" d="M215.65,78.9c40.01,30.92,64.74,76.24,69.32,127.38l0.07,0.82h-25.38l-0.02-0.72
			c-2.52-49.27-24.16-94.34-59.61-127.47L215.65,78.9z"/>
	</g>
	<rect x="6.74" y="277.78" class="st0" width="296.92" height="6.95"/>
	<rect x="6.74" y="236.56" class="st0" width="296.92" height="6.95"/>
	<polygon class="st0" points="126.32,41.74 113.87,41.74 113.87,55.92 126.31,55.92 	"/>
	<rect x="130.73" y="41.74" class="st0" width="12.69" height="14.18"/>
	<rect x="184.33" y="41.74" class="st0" width="11.93" height="14.18"/>
	<polygon class="st0" points="148.35,41.74 148.34,55.92 161.19,55.92 161.2,41.74 	"/>
	<g>
		<path class="st0" d="M140.98,36.15l27.94,0.02l0.01-13.64c-0.64-7.25-6.64-12.95-13.91-12.95c-7.71-0.01-13.98,6.38-13.99,14.24
			L140.98,36.15z"/>
		<path class="st0" d="M180.01,29.63c0-4.71,3.71-8.02,8.1-8.02c4.49-0.01,8.15,3.72,8.15,8.29v6.25h-16.25V29.63z"/>
		<path class="st0" d="M113.87,29.63c0-4.71,3.71-8.02,8.1-8.02c4.49-0.01,8.14,3.72,8.15,8.29v6.25h-16.24L113.87,29.63z"/>
		<path class="st0" d="M163.25,64.84l-1.23-3.98l-14.3,0.03c-0.25,0.94-0.61,2.34-1.02,3.95H163.25z"/>
		<path class="st0" d="M165.63,73.32c-0.42-1.36-0.86-2.77-1.23-4.01l-18.73-0.02c-0.4,1.35-0.83,2.72-1.24,4.03L165.63,73.32z"/>
		<path class="st0" d="M183.89,64.85c-2.24-2.38-3.79-3.99-3.79-3.99H167.4l1.97,3.99H183.89z"/>
		<path class="st0" d="M191.05,73.32c-1.24-1.36-2.5-2.72-3.71-4.02H171.2l1.99,4.02H191.05z"/>
		<path class="st0" d="M201.95,64.85c-2.93-2.46-4.75-3.99-4.75-3.99h-11.81c1.41,1.43,2.69,2.69,3.91,3.98L201.95,64.85z"/>
		<path class="st0" d="M196.66,73.33c-1.19-1.24-2.62-2.71-3.89-4.05l13.58,0.01c1.38,1.16,3.27,2.7,4.9,4.04L196.66,73.33z"/>
		<path class="st0" d="M110.41,78.91c-35.44,33.13-57.09,78.2-59.6,127.47l-0.03,0.72H25.39l0.08-0.82
			c4.58-51.14,29.32-96.47,69.32-127.38L110.41,78.91z"/>
	</g>
	<path class="st0" d="M108.57,219.05H64.94v-6.14h43.62V219.05z M108.57,230.72H64.94v-6.15h43.62V230.72z"/>
	<g>
		<path class="st0" d="M135.43,78.9c-17.87,35.09-27.38,76.48-27.38,120.97c0,2.02,0.03,4.26,0.07,6.46l0.03,0.75H64.92l0.04-1
			c2.88-48.97,20.6-93,51.13-127.19H135.43z"/>
		<path class="st0" d="M137.25,73.33l1.99-4.03H123.1c-1.2,1.29-2.46,2.66-3.71,4.02L137.25,73.33z"/>
		<path class="st0" d="M141.07,64.84l1.97-3.98h-13.01c0,0-1.23,1.61-3.46,3.98H141.07z"/>
		<path class="st0" d="M113.8,73.33c1.22-1.27,2.5-2.63,3.85-4.03h-13.58c-1.5,1.25-3.14,2.61-4.85,4.03H113.8z"/>
		<path class="st0" d="M121.14,64.84c0,0,2.63-2.62,3.9-3.98h-11.78c0,0-1.81,1.53-4.75,3.98H121.14z"/>
	</g>
	<rect x="332.57" y="182.61" class="st0" width="495.52" height="5.45"/>
</g>
</svg>
