<?xml version="1.0" encoding="utf-8"?>
<!-- Generator: Adobe Illustrator 23.0.1, SVG Export Plug-In . SVG Version: 6.00 Build 0)  -->
<svg version="1.1" id="Camada_1" xmlns="http://www.w3.org/2000/svg" xmlns:xlink="http://www.w3.org/1999/xlink" x="0px" y="0px"
	 viewBox="0 0 1340 243.7" style="enable-background:new 0 0 1340 243.7;" xml:space="preserve">
<style type="text/css">
	.st0{fill:#042852;}
	.st1{fill:#9C9C9C;}
	.st2{fill:#001B3F;}
	.st3{fill:none;}
</style>
<title>logo-eventos-alerj</title>
<g>
	<g>
		<g>
			<path class="st0" d="M437.6,219.1V69.5c0-3.3,2.7-6,6-6h97.3v22h-78.7v47.2h67.2v21.8h-67.2v48.6h78.7v22h-97.3
				C440.2,225,437.6,222.4,437.6,219.1z"/>
			<path class="st0" d="M626.5,225h-19.1l-53-161.5h25.4L617,181l37.2-117.5h25.9L626.5,225z"/>
			<path class="st0" d="M696.5,225V63.5h103.2v22H721v47.2h67.2v21.8H721v48.6h78.7v22L696.5,225L696.5,225z"/>
			<path class="st0" d="M920.8,225l-74.6-113.7V225h-24.5V63.5h22.5l74.6,113.4V63.5h24.5V225H920.8z"/>
			<path class="st0" d="M1028.5,85.5V225H1004V85.5h-44.5v-22h113.4v22H1028.5z"/>
			<path class="st0" d="M1206.3,165.3c-0.2,6.3-0.7,12-1.6,17.1s-2.4,9.9-4.5,14.3c-2.1,4.4-5.1,8.5-9.1,12.5
				c-5.6,5.6-11.9,9.9-19.1,12.8c-7.1,2.9-15,4.4-23.6,4.4s-16.4-1.5-23.5-4.4c-7-2.9-13.4-7.2-18.9-12.8c-3.9-3.9-7-8.1-9.1-12.5
				s-3.7-9.1-4.6-14.3c-1-5.1-1.6-10.8-1.7-17.1c-0.2-6.3-0.2-13.3-0.2-21s0.1-14.7,0.2-21s0.7-12,1.7-17.1s2.5-9.9,4.6-14.3
				s5.1-8.5,9.1-12.5c5.6-5.6,11.9-9.9,18.9-12.8c7-2.9,14.9-4.4,23.5-4.4s16.5,1.5,23.6,4.4c7.1,2.9,13.5,7.2,19.1,12.8
				c3.9,3.9,7,8.1,9.1,12.5s3.6,9.2,4.5,14.3c0.9,5.1,1.4,10.9,1.6,17.1c0.1,6.3,0.2,13.3,0.2,21
				C1206.6,152,1206.5,159,1206.3,165.3z M1181.7,124c-0.2-5.4-0.7-9.9-1.4-13.6c-0.7-3.7-1.7-6.8-2.9-9.3c-1.3-2.5-2.9-4.8-4.9-6.9
				c-2.9-3-6.4-5.4-10.5-7.3c-4.2-1.8-8.7-2.7-13.5-2.7s-9.3,0.9-13.5,2.7c-4.2,1.8-7.7,4.2-10.6,7.3c-2,2.1-3.6,4.4-4.9,6.9
				s-2.3,5.6-2.9,9.3c-0.7,3.7-1.1,8.2-1.4,13.6c-0.2,5.4-0.3,12.1-0.3,20.3s0.1,14.9,0.3,20.3c0.2,5.4,0.7,9.9,1.4,13.6
				c0.7,3.7,1.7,6.8,2.9,9.3c1.3,2.5,2.9,4.8,4.9,6.9c2.9,3,6.4,5.4,10.6,7.3c4.2,1.8,8.7,2.7,13.5,2.7s9.3-0.9,13.5-2.7
				s7.7-4.2,10.5-7.3c2-2.1,3.6-4.4,4.9-6.9s2.3-5.6,2.9-9.3c0.7-3.7,1.1-8.2,1.4-13.6c0.2-5.4,0.3-12.1,0.3-20.3
				C1182.1,136.1,1182,129.3,1181.7,124z"/>
			<path class="st0" d="M1333.7,199c-2.9,5.9-6.9,10.9-12,15s-11.3,7.2-18.4,9.3s-14.9,3.2-23.4,3.2c-12.2,0-22.9-1.6-32-4.8
				s-17.5-8.7-25.2-16.6L1239,189c5.9,5.9,12.2,9.9,18.8,12.1c6.7,2.2,14.1,3.3,22.5,3.3c10.6,0,18.8-2.2,24.6-6.5
				c5.8-4.3,8.7-10.4,8.7-18.3c0-7.4-2.1-13-6.4-16.8c-2.1-2-4.4-3.4-6.8-4.3c-2.4-0.9-6.1-1.7-10.9-2.5l-19.1-2.7
				c-13.2-1.8-23.4-6.1-30.6-12.9c-7.9-7.4-11.8-17.7-11.8-30.9c0-7,1.2-13.3,3.7-19.2c2.5-5.8,6-10.9,10.7-15.1
				c4.6-4.2,10.2-7.5,16.9-9.8c6.7-2.3,14.2-3.4,22.7-3.4c10.7,0,20,1.4,27.9,4.3c7.9,2.9,15.3,7.6,22.2,14.1l-15.7,15.4
				c-5-4.8-10.4-8.1-16.2-9.9c-5.8-1.7-12.1-2.6-18.9-2.6c-9.5,0-16.8,2.4-21.9,7.1c-5.1,4.8-7.6,10.8-7.6,18c0,3,0.5,5.8,1.5,8.3
				s2.5,4.7,4.6,6.7c4.2,3.8,10.3,6.3,18.1,7.5l18.4,2.7c7.6,1.2,13.6,2.8,18.1,4.6c4.5,1.9,8.5,4.3,12,7.4
				c4.4,3.9,7.7,8.7,9.9,14.3c2.2,5.6,3.3,11.9,3.3,18.8C1338,186.4,1336.6,193.1,1333.7,199z"/>
		</g>
	</g>
	<path class="st1" d="M397.2,160.5L397.2,160.5c0.2,0,0.4-0.1,0.5-0.2C397.5,160.4,397.3,160.5,397.2,160.5z"/>
	<path class="st2" d="M349.7,157.9c0.2,0.1,0.6,0.1,0.8,0.2v-0.7C350.2,157.5,349.9,157.7,349.7,157.9z"/>
	<path class="st3" d="M390.5,196.6l-7,6.8l1.7,9.6l-8.7-4.6l-8.7,4.6l0.4-2.4c-4.7,4.6-8.6,8.4-10.5,10.1h38.9
		c2.3,0,4.2-1.9,4.2-4.2v-38.8c-3.1,3.4-9.9,10.3-17.3,17.7L390.5,196.6z"/>
	<path class="st0" d="M364.2,196.4l-0.9,0.9l0,0C363.5,197,363.8,196.7,364.2,196.4L364.2,196.4z"/>
	<path class="st0" d="M403.1,156.8c0.3-0.3,0.5-0.7,0.7-1C403.5,156.1,403.3,156.5,403.1,156.8z"/>
	<path class="st0" d="M405.7,152.3c-0.3,0.7-0.6,1.4-1,2c0.1-0.2,0.3-0.4,0.4-0.6C405.4,153.3,405.5,152.8,405.7,152.3z"/>
	<path class="st0" d="M400.8,159.4L400.8,159.4c0.1-0.1,0.2-0.2,0.3-0.3C401.1,159.2,401,159.3,400.8,159.4z"/>
	<path class="st0" d="M335.3,225c0,0,0.2-0.2,0.4-0.3C335.5,224.8,335.3,224.9,335.3,225z"/>
	<path class="st0" d="M339.6,220.8c-1.8,1.8-3.1,3.1-3.8,3.7C336.4,223.9,337.7,222.7,339.6,220.8L339.6,220.8z"/>
	<path class="st0" d="M331.5,226.4c-0.6,0.1-1.2,0.1-1.8,0.2l0,0C330.4,226.5,331,226.5,331.5,226.4z"/>
	<g>
		<rect x="234.3" y="203.7" class="st0" width="6.1" height="15.7"/>
		<rect x="11.5" y="203.7" class="st0" width="6.1" height="15.7"/>
		<rect x="2" y="236.5" class="st0" width="247.5" height="5.8"/>
		<rect x="217.8" y="203.7" class="st0" width="8.4" height="15.7"/>
		<rect x="199.2" y="203.7" class="st0" width="10.6" height="15.7"/>
		<rect x="180.8" y="203.7" class="st0" width="10.4" height="15.7"/>
		<rect x="161.2" y="203.7" class="st0" width="11.5" height="15.7"/>
		<rect x="140.8" y="203.7" class="st0" width="12.4" height="15.7"/>
		<rect x="118.9" y="203.7" class="st0" width="13.9" height="15.7"/>
		<rect x="98.5" y="203.7" class="st0" width="12.3" height="15.7"/>
		<rect x="79.1" y="203.7" class="st0" width="11.4" height="15.7"/>
		<rect x="60.6" y="203.7" class="st0" width="10.5" height="15.7"/>
		<rect x="42" y="203.7" class="st0" width="10.6" height="15.7"/>
		<rect x="25.6" y="203.7" class="st0" width="8.4" height="15.7"/>
		<rect x="2" y="225.8" class="st0" width="247.5" height="5.8"/>
		<rect x="2" y="191.5" class="st0" width="247.5" height="5.8"/>
		<rect x="98.4" y="181.3" class="st0" width="55.4" height="5.1"/>
		<rect x="98.4" y="171.9" class="st0" width="55.4" height="5.1"/>
		<rect x="165.2" y="171.8" class="st0" width="36.3" height="5.1"/>
		<rect x="165.2" y="181.5" class="st0" width="36.3" height="5.1"/>
		<rect x="212.8" y="181.5" class="st0" width="21.1" height="5.1"/>
		<rect x="212.8" y="171.8" class="st0" width="21.1" height="5.1"/>
		<rect x="17.6" y="171.8" class="st0" width="21.1" height="5.1"/>
		<rect x="17.6" y="181.5" class="st0" width="21.1" height="5.1"/>
		<path class="st0" d="M153.2,166.9v-0.6c0.1-3,0.1-6,0.1-8.9c0-29.8-5.8-61-18.1-97.3h-19.6c-11.6,34.5-17.5,66.8-17.5,97.4
			c0,2.9,0,5.7,0.1,8.9v0.6h55V166.9z"/>
		<path class="st0" d="M165,166.9h36v-0.8c-2.4-40.8-17.2-77.5-42.6-106h-16.1c14.9,29.3,22.8,63.7,22.8,100.8c0,1.7,0,3.6-0.1,5.4
			L165,166.9z"/>
		<path class="st0" d="M212.8,166.3v0.6H234l-0.1-0.7c-3.8-42.6-24.4-80.4-57.8-106.2h-13C192.6,87.7,210.7,125.3,212.8,166.3z"/>
		<path class="st0" d="M38.7,166.3c2.1-41.1,20.1-78.6,49.7-106.2h-13c-33.3,25.8-54,63.5-57.8,106.2l-0.1,0.7h21.2L38.7,166.3z"/>
		<rect x="50.5" y="171.8" class="st0" width="36.4" height="5.1"/>
		<rect x="50.5" y="181.5" class="st0" width="36.4" height="5.1"/>
		<path class="st0" d="M93.1,60.1c-25.4,28.5-40.2,65.2-42.6,106v0.8h36v-0.6c0-1.8-0.1-3.7-0.1-5.4c0-37.1,7.9-71.6,22.8-100.8
			H93.1z"/>
		<rect x="134.7" y="29.1" class="st0" width="11.1" height="11.8"/>
		<rect x="91.3" y="29.1" class="st0" width="10.4" height="11.8"/>
		<rect x="105.3" y="29.1" class="st0" width="10.6" height="11.8"/>
		<rect x="150" y="29.1" class="st0" width="9.9" height="11.8"/>
		<rect x="120" y="29.1" class="st0" width="10.7" height="11.8"/>
		<path class="st0" d="M137.2,13.1c-0.5-6-5.5-10.8-11.6-10.8c-6.4,0-11.7,5.3-11.7,11.9v10.3h23.3V13.1z"/>
		<path class="st0" d="M160,19.2c0-3.8-3-6.9-6.8-6.9c-3.7,0-6.8,2.8-6.8,6.7v5.4H160V19.2z"/>
		<path class="st0" d="M104.8,24.4v-5.2c0-3.8-3.1-6.9-6.8-6.9c-3.7,0-6.8,2.8-6.8,6.7v5.4H104.8z"/>
		<path class="st0" d="M118.7,48.3h13.8l-1-3.3h-11.9C119.3,45.8,119,47,118.7,48.3z"/>
		<path class="st0" d="M116.8,55.4h17.7c-0.4-1.1-0.7-2.3-1-3.3h-15.6C117.5,53.2,117.1,54.3,116.8,55.4z"/>
		<path class="st0" d="M135.9,45l1.6,3.3h12.1c-1.9-2-3.2-3.3-3.2-3.3H135.9z"/>
		<path class="st0" d="M155.6,55.4c-1-1.1-2.1-2.3-3.1-3.4H139l1.7,3.4H155.6z"/>
		<path class="st0" d="M154.2,48.3h10.5c-2.4-2.1-4-3.3-4-3.3h-9.8C152.1,46.2,153.1,47.3,154.2,48.3z"/>
		<path class="st0" d="M160.3,55.4h12.2c-1.4-1.1-2.9-2.4-4.1-3.4h-11.3C158.1,53.2,159.3,54.4,160.3,55.4z"/>
		<path class="st0" d="M95.9,55.4h14.9l1.7-3.4H99C98,53.1,96.9,54.3,95.9,55.4z"/>
		<path class="st0" d="M115.6,45h-10.8c0,0-1,1.3-2.9,3.3H114L115.6,45z"/>
		<path class="st0" d="M94.4,52.1H83.1c-1.3,1-2.6,2.2-4,3.4h12.2C92.3,54.4,93.3,53.2,94.4,52.1z"/>
		<path class="st0" d="M100.6,45h-9.8c0,0-1.5,1.3-4,3.3h10.5C97.3,48.3,99.5,46.2,100.6,45z"/>
		<path class="st0" d="M400.2,63.3h-34.8V69c3.6,1.5,6.1,5.1,6.1,9.2c0,5.6-4.5,10.1-10.1,10.1s-10.1-4.5-10.1-10.1
			c0-4.1,2.5-7.7,6.1-9.2v-5.7H196.8c1,1,1.9,2,2.9,3.1l0.4,0.4c0.6,0.6,1,1.2,1.6,1.8c1.2,1.4,2.5,2.7,3.7,4.2
			c2.1,2.4,4.2,4.9,6.2,7.5c1.1,1.5,2.3,2.9,3.4,4.5c0.9,1.2,1.8,2.4,2.6,3.7c1.1,1.6,2.1,3.2,3.2,4.9h185.8V69.6
			C406.6,66.1,403.7,63.3,400.2,63.3z"/>
		<path class="st0" d="M361.5,76.2c1.4,0,2.6-1.2,2.6-2.6V53.8c0-1.4-1.2-2.6-2.6-2.6s-2.6,1.2-2.6,2.6v19.8
			C358.9,75,360,76.2,361.5,76.2z"/>
		<rect x="284.1" y="104.9" class="st0" width="19.7" height="34.9"/>
		<rect x="307.5" y="104.9" class="st0" width="19.7" height="34.9"/>
		<rect x="330.8" y="104.9" class="st0" width="19.7" height="34.9"/>
		<rect x="354.2" y="104.9" class="st0" width="19.7" height="34.9"/>
		<rect x="377.5" y="104.9" class="st0" width="19.7" height="34.9"/>
		<rect x="284.1" y="182.3" class="st0" width="19.7" height="34.9"/>
		<rect x="307.5" y="182.3" class="st0" width="19.7" height="34.9"/>
		<path class="st0" d="M227.7,104.9c2.2,4.1,4.2,8.3,6,12.7v-12.7H227.7z"/>
		<path class="st0" d="M237.5,127.1c1.4,4.1,2.7,8.3,3.7,12.6h16v-34.9h-19.7L237.5,127.1L237.5,127.1z"/>
		<rect x="260.8" y="104.9" class="st0" width="19.7" height="34.9"/>
		<path class="st0" d="M244.1,159.7c0,0.3,0.1,0.5,0.1,0.8l0.1,3.7c0.4,7.5,0.5,12.1,0.5,14.3h12.3v-34.9h-15.2
			C242.9,148.8,243.7,154.2,244.1,159.7z"/>
		<rect x="260.8" y="143.6" class="st0" width="19.7" height="34.9"/>
		<rect x="284.1" y="143.6" class="st0" width="19.7" height="34.9"/>
		<rect x="307.5" y="143.6" class="st0" width="19.7" height="34.9"/>
		<rect x="260.8" y="182.3" class="st0" width="19.7" height="34.9"/>
		<rect x="330.8" y="182.3" class="st0" width="6.3" height="34.9"/>
		<path class="st0" d="M330.8,178.4h6.3v-15.9c0-4.2,3-6.4,7.7-5.7c0,0,2.2,0.5,5.7,1.3l0,0c-0.3-0.1-0.6-0.1-0.8-0.2
			c0.2-0.2,0.5-0.3,0.8-0.5v-13.8h-19.7V178.4z"/>
		<path class="st0" d="M377.5,161.5c7.4,0.8,14.8,0.9,19.7-1v-16.9h-19.7V161.5z"/>
		<path class="st0" d="M354.2,157c2.4,0.7,10.6,2.8,19.7,4.1v-17.5h-19.7V157z"/>
		<path class="st0" d="M367.8,213.1l8.7-4.6l8.7,4.6l-1.7-9.6l7-6.8l-7-1c-5.2,5.2-10.6,10.6-15.3,15.1L367.8,213.1z"/>
		<path class="st0" d="M225.7,101.2h175.2v57.2c3.8-3,5.1-6.7,5.5-8.8c-0.1,0.9-0.3,1.8-0.6,2.6c0.5-1.3,0.8-2.5,0.8-3.9
			c0,1,0,2.9,0,5v0.1V95.5H222.3C223.5,97.3,224.6,99.3,225.7,101.2z"/>
		<path class="st0" d="M260.4,220.8v5.7h69.1h0.1l0,0c3.1-0.7,5.9-2.2,6.9-5.7H260.4z"/>
		<path class="st0" d="M400.8,177.9v38.8c0,2.3-1.9,4.2-4.2,4.2h-38.9c-0.6,0.5-1,0.9-1.2,1.1c-5.2,4-15.3,4.6-20.3,4.6h64
			c3.5,0,6.3-2.8,6.3-6.3v-60.5c-0.2,5.2-1,11.9-4.1,16.1C402.2,176.3,401.6,177,400.8,177.9z"/>
	</g>
	<path class="st0" d="M350.5,210c-2.7,2.7-5.1,5.1-7.2,7.2l0,0C345.4,215.1,347.8,212.7,350.5,210L350.5,210z"/>
	<path class="st0" d="M397.2,163.2c-3.5,3.5-8.9,9-15.2,15.3h0.1C388.3,172.2,393.7,166.7,397.2,163.2L397.2,163.2z"/>
	<path class="st1" d="M406.6,153.3v6.5C406.7,156.9,406.6,154.5,406.6,153.3z"/>
	<path class="st1" d="M405.7,152.3c0-0.1,0.1-0.1,0.1-0.2C405.7,152.2,405.7,152.3,405.7,152.3z"/>
	<path class="st1" d="M335.7,224.6L335.7,224.6L335.7,224.6z"/>
	<path class="st1" d="M329.3,226.6c1.3,0,3,0,4.9,0c0.5,0,1.2,0,2,0h-6.6C329.5,226.6,329.4,226.6,329.3,226.6z"/>
	<path class="st1" d="M401.1,159.2c0.7-0.7,1.4-1.5,2-2.3C402.5,157.6,401.8,158.4,401.1,159.2z"/>
	<path class="st1" d="M403.8,155.8c0.3-0.5,0.6-0.9,0.9-1.4C404.4,154.9,404.1,155.3,403.8,155.8z"/>
	<g>
		<path class="st1" d="M406.6,95.5v124.8c0,3.5-2.8,6.3-6.3,6.3H260.4v4.4l142.9,0.9c3.5,0,6.3-2.8,6.3-6.3L406.6,95.5z"/>
		<path class="st1" d="M354.2,157c-0.5-0.1-0.8-0.2-0.8-0.2c-1.2-0.2-2.1,0.1-2.9,0.6v0.7c1.1,0.2,2.4,0.5,3.7,0.8L354.2,157
			L354.2,157z"/>
		<path class="st1" d="M357,159.4c-1-0.2-1.9-0.4-2.9-0.6l0,0C355.1,159,356,159.2,357,159.4z"/>
		<path class="st1" d="M377.5,161.5c-1.2-0.1-2.5-0.3-3.7-0.5v0.9c1.3,0.1,2.5,0.2,3.7,0.3V161.5z"/>
		<path class="st1" d="M379.7,162.5c-0.7-0.1-1.5-0.1-2.2-0.2v0.1C378.3,162.5,379,162.5,379.7,162.5z"/>
		<path class="st1" d="M368.3,210.7l1.2-7.3l-6.3-6.1c-4.5,4.5-8.8,8.8-12.7,12.7v7.2h-7.2c-1.4,1.4-2.6,2.6-3.7,3.7h18.2
			C359.7,219.1,363.5,215.3,368.3,210.7z"/>
		<path class="st1" d="M376.5,186.4l4.3,8.8l2.7,0.4c7.4-7.4,14.2-14.3,17.3-17.7v-18.4c-0.5,0.6-1.8,1.9-3.7,3.8v15.2H382
			c-5.6,5.6-11.8,11.9-17.9,17.9l8-1.2L376.5,186.4z"/>
	</g>
	<g>
		<path class="st2" d="M377.5,161.5v0.9c0.8,0.1,1.5,0.1,2.2,0.2c1,0.1,2,0.1,2.9,0.2c0.7,0,1.4,0,2.1,0c1.1,0,2.1,0,3-0.1
			c0.5,0,1.1,0,1.6-0.1c1.4-0.1,2.8-0.3,3.9-0.6c1.2-0.3,2.2-0.7,3.1-1.1c0.3-0.1,0.5-0.2,0.7-0.3v-0.1
			C392.3,162.4,384.9,162.3,377.5,161.5z"/>
		<path class="st2" d="M367.4,161.1c0.7,0.1,1.3,0.2,2,0.3c1.2,0.2,2.4,0.3,3.7,0.5c0.3,0,0.5,0.1,0.8,0.1v-0.9
			c-9.1-1.3-17.2-3.4-19.7-4.1v1.8c0.9,0.2,1.9,0.4,2.9,0.6c0.5,0.1,1,0.2,1.6,0.3c1.1,0.2,2.2,0.4,3.3,0.6c0.6,0.1,1.3,0.2,1.9,0.3
			C365,160.8,366.2,161,367.4,161.1z"/>
		<path class="st2" d="M376.5,186.4l-4.3,8.8l-8,1.2c-0.3,0.3-0.6,0.6-0.9,0.9l6.3,6.1l-1.2,7.3c4.7-4.6,10.1-9.9,15.3-15.1
			l-2.7-0.4L376.5,186.4z"/>
		<path class="st2" d="M406.6,153.3c0-2.2,0-4,0-5c-0.1,1.4-0.3,2.6-0.8,3.9c0,0.1-0.1,0.1-0.1,0.2c-0.2,0.5-0.3,0.9-0.6,1.4
			c-0.1,0.2-0.3,0.4-0.4,0.6c-0.3,0.5-0.6,0.9-0.9,1.4c-0.2,0.3-0.4,0.7-0.7,1c-0.6,0.8-1.3,1.6-2,2.3c0,0.1-0.2,0.2-0.3,0.3v18.4
			c0.8-0.8,1.4-1.6,1.7-1.9c3.1-4.2,3.9-10.9,4.1-16.1L406.6,153.3L406.6,153.3z"/>
		<path class="st2" d="M335.8,224.5C335.7,224.6,335.7,224.6,335.8,224.5c-0.3,0.3-0.4,0.4-0.5,0.4c-0.9,0.7-2.1,1.2-3.7,1.4
			c-0.6,0.1-1.2,0.1-1.8,0.2l0,0c-0.1,0-0.1,0-0.1,0h6.6c5-0.1,15.1-0.6,20.3-4.6c0.2-0.2,0.6-0.6,1.2-1.1h-18.2
			C337.7,222.7,336.4,223.9,335.8,224.5z"/>
		<path class="st2" d="M350.5,210c-2.7,2.7-5.1,5.1-7.2,7.2h7.2V210z"/>
		<path class="st2" d="M397.2,178.4v-15.2c-3.5,3.5-8.9,9-15.1,15.2H397.2z"/>
	</g>
</g>
</svg>
