<?xml version="1.0" encoding="utf-8"?>
<!-- Generator: Adobe Illustrator 24.3.0, SVG Export Plug-In . SVG Version: 6.00 Build 0)  -->
<svg version="1.1" id="Camada_1" xmlns="http://www.w3.org/2000/svg" xmlns:xlink="http://www.w3.org/1999/xlink" x="0px" y="0px"
	 viewBox="0 0 1361.4 243.7" style="enable-background:new 0 0 1361.4 243.7;" xml:space="preserve">
<style type="text/css">
	.st0{fill:#042852;}
	.st1{fill:#9C9C9C;}
	.st2{fill:#001B3F;}
	.st3{fill:none;}
	.st4{fill:#052954;}
</style>
<g>
	<g>
		<path class="st0" d="M459,219.1V69.5c0-3.3,2.7-6,6-6h97.3v22h-78.7v47.2h67.2v21.8h-67.2v48.6h78.7v22H465
			C461.6,225,459,222.4,459,219.1z"/>
		<path class="st0" d="M647.9,225h-19.1l-53-161.5h25.4L638.4,181l37.2-117.5h25.9L647.9,225z"/>
		<path class="st0" d="M717.9,225V63.5h103.2v22h-78.7v47.2h67.2v21.8h-67.2v48.6h78.7v22L717.9,225L717.9,225z"/>
		<path class="st0" d="M942.2,225l-74.6-113.7V225h-24.5V63.5h22.5l74.6,113.4V63.5h24.5V225H942.2z"/>
		<path class="st0" d="M1049.9,85.5V225h-24.5V85.5h-44.5v-22h113.4v22H1049.9z"/>
		<path class="st0" d="M1227.7,165.3c-0.2,6.3-0.7,12-1.6,17.1s-2.4,9.9-4.5,14.3c-2.1,4.4-5.1,8.5-9.1,12.5
			c-5.6,5.6-11.9,9.9-19.1,12.8c-7.1,2.9-15,4.4-23.6,4.4s-16.4-1.5-23.5-4.4c-7-2.9-13.4-7.2-18.9-12.8c-3.9-3.9-7-8.1-9.1-12.5
			s-3.7-9.1-4.6-14.3c-1-5.1-1.6-10.8-1.7-17.1c-0.2-6.3-0.2-13.3-0.2-21s0.1-14.7,0.2-21s0.7-12,1.7-17.1s2.5-9.9,4.6-14.3
			s5.1-8.5,9.1-12.5c5.6-5.6,11.9-9.9,18.9-12.8s14.9-4.4,23.5-4.4s16.5,1.5,23.6,4.4s13.5,7.2,19.1,12.8c3.9,3.9,7,8.1,9.1,12.5
			s3.6,9.2,4.5,14.3c0.9,5.1,1.4,10.9,1.6,17.1c0.1,6.3,0.2,13.3,0.2,21C1228,152,1227.9,159,1227.7,165.3z M1203.1,124
			c-0.2-5.4-0.7-9.9-1.4-13.6c-0.7-3.7-1.7-6.8-2.9-9.3c-1.3-2.5-2.9-4.8-4.9-6.9c-2.9-3-6.4-5.4-10.5-7.3
			c-4.2-1.8-8.7-2.7-13.5-2.7s-9.3,0.9-13.5,2.7c-4.2,1.8-7.7,4.2-10.6,7.3c-2,2.1-3.6,4.4-4.9,6.9s-2.3,5.6-2.9,9.3
			c-0.7,3.7-1.1,8.2-1.4,13.6c-0.2,5.4-0.3,12.1-0.3,20.3s0.1,14.9,0.3,20.3c0.2,5.4,0.7,9.9,1.4,13.6c0.7,3.7,1.7,6.8,2.9,9.3
			c1.3,2.5,2.9,4.8,4.9,6.9c2.9,3,6.4,5.4,10.6,7.3c4.2,1.8,8.7,2.7,13.5,2.7s9.3-0.9,13.5-2.7s7.7-4.2,10.5-7.3
			c2-2.1,3.6-4.4,4.9-6.9s2.3-5.6,2.9-9.3c0.7-3.7,1.1-8.2,1.4-13.6c0.2-5.4,0.3-12.1,0.3-20.3
			C1203.5,136.1,1203.4,129.3,1203.1,124z"/>
		<path class="st0" d="M1355.1,199c-2.9,5.9-6.9,10.9-12,15s-11.3,7.2-18.4,9.3s-14.9,3.2-23.4,3.2c-12.2,0-22.9-1.6-32-4.8
			s-17.5-8.7-25.2-16.6l16.3-16.1c5.9,5.9,12.2,9.9,18.8,12.1c6.7,2.2,14.1,3.3,22.5,3.3c10.6,0,18.8-2.2,24.6-6.5
			c5.8-4.3,8.7-10.4,8.7-18.3c0-7.4-2.1-13-6.4-16.8c-2.1-2-4.4-3.4-6.8-4.3c-2.4-0.9-6.1-1.7-10.9-2.5l-19.1-2.7
			c-13.2-1.8-23.4-6.1-30.6-12.9c-7.9-7.4-11.8-17.7-11.8-30.9c0-7,1.2-13.3,3.7-19.2c2.5-5.8,6-10.9,10.7-15.1
			c4.6-4.2,10.2-7.5,16.9-9.8c6.7-2.3,14.2-3.4,22.7-3.4c10.7,0,20,1.4,27.9,4.3s15.3,7.6,22.2,14.1l-15.7,15.4
			c-5-4.8-10.4-8.1-16.2-9.9c-5.8-1.7-12.1-2.6-18.9-2.6c-9.5,0-16.8,2.4-21.9,7.1c-5.1,4.8-7.6,10.8-7.6,18c0,3,0.5,5.8,1.5,8.3
			s2.5,4.7,4.6,6.7c4.2,3.8,10.3,6.3,18.1,7.5l18.4,2.7c7.6,1.2,13.6,2.8,18.1,4.6c4.5,1.9,8.5,4.3,12,7.4c4.4,3.9,7.7,8.7,9.9,14.3
			c2.2,5.6,3.3,11.9,3.3,18.8C1359.4,186.4,1358,193.1,1355.1,199z"/>
	</g>
</g>
<path class="st1" d="M418.6,160.5L418.6,160.5c0.2,0,0.4-0.1,0.5-0.2C418.9,160.4,418.7,160.5,418.6,160.5z"/>
<path class="st2" d="M371.1,157.9c0.2,0.1,0.6,0.1,0.8,0.2v-0.7C371.6,157.5,371.3,157.7,371.1,157.9z"/>
<path class="st3" d="M411.9,196.6l-7,6.8l1.7,9.6l-8.7-4.6l-8.7,4.6l0.4-2.4c-4.7,4.6-8.6,8.4-10.5,10.1H418c2.3,0,4.2-1.9,4.2-4.2
	v-38.8c-3.1,3.4-9.9,10.3-17.3,17.7L411.9,196.6z"/>
<path class="st0" d="M385.6,196.4l-0.9,0.9l0,0C384.9,197,385.2,196.7,385.6,196.4L385.6,196.4z"/>
<path class="st0" d="M424.5,156.8c0.3-0.3,0.5-0.7,0.7-1C424.9,156.1,424.7,156.5,424.5,156.8z"/>
<path class="st0" d="M427.1,152.3c-0.3,0.7-0.6,1.4-1,2c0.1-0.2,0.3-0.4,0.4-0.6C426.8,153.3,426.9,152.8,427.1,152.3z"/>
<path class="st0" d="M422.2,159.4L422.2,159.4c0.1-0.1,0.2-0.2,0.3-0.3C422.5,159.2,422.4,159.3,422.2,159.4z"/>
<path class="st0" d="M356.7,225c0,0,0.2-0.2,0.4-0.3C356.9,224.8,356.7,224.9,356.7,225z"/>
<path class="st0" d="M361,220.8c-1.8,1.8-3.1,3.1-3.8,3.7C357.8,223.9,359.1,222.7,361,220.8L361,220.8z"/>
<path class="st0" d="M352.9,226.4c-0.6,0.1-1.2,0.1-1.8,0.2l0,0C351.8,226.5,352.4,226.5,352.9,226.4z"/>
<path class="st0" d="M421.6,63.3h-34.8V69c3.6,1.5,6.1,5.1,6.1,9.2c0,5.6-4.5,10.1-10.1,10.1s-10.1-4.5-10.1-10.1
	c0-4.1,2.5-7.7,6.1-9.2v-5.7H218.2c1,1,1.9,2,2.9,3.1l0.4,0.4c0.6,0.6,1,1.2,1.6,1.8c1.2,1.4,2.5,2.7,3.7,4.2
	c2.1,2.4,4.2,4.9,6.2,7.5c1.1,1.5,2.3,2.9,3.4,4.5c0.9,1.2,1.8,2.4,2.6,3.7c1.1,1.6,2.1,3.2,3.2,4.9H428V69.6
	C428,66.1,425.1,63.3,421.6,63.3z"/>
<path class="st0" d="M382.9,76.2c1.4,0,2.6-1.2,2.6-2.6V53.8c0-1.4-1.2-2.6-2.6-2.6s-2.6,1.2-2.6,2.6v19.8
	C380.3,75,381.4,76.2,382.9,76.2z"/>
<rect x="305.5" y="104.9" class="st0" width="19.7" height="34.9"/>
<rect x="328.9" y="104.9" class="st0" width="19.7" height="34.9"/>
<rect x="352.2" y="104.9" class="st0" width="19.7" height="34.9"/>
<rect x="375.6" y="104.9" class="st0" width="19.7" height="34.9"/>
<rect x="398.9" y="104.9" class="st0" width="19.7" height="34.9"/>
<rect x="305.5" y="182.3" class="st0" width="19.7" height="34.9"/>
<rect x="328.9" y="182.3" class="st0" width="19.7" height="34.9"/>
<path class="st0" d="M249.1,104.9c2.2,4.1,4.2,8.3,6,12.7v-12.7H249.1z"/>
<path class="st0" d="M258.9,127.1c1.4,4.1,2.7,8.3,3.7,12.6h16v-34.9h-19.7L258.9,127.1L258.9,127.1z"/>
<rect x="282.2" y="104.9" class="st0" width="19.7" height="34.9"/>
<path class="st0" d="M265.5,159.7c0,0.3,0.1,0.5,0.1,0.8l0.1,3.7c0.4,7.5,0.5,12.1,0.5,14.3h12.3v-34.9h-15.2
	C264.3,148.8,265.1,154.2,265.5,159.7z"/>
<rect x="282.2" y="143.6" class="st0" width="19.7" height="34.9"/>
<rect x="305.5" y="143.6" class="st0" width="19.7" height="34.9"/>
<rect x="328.9" y="143.6" class="st0" width="19.7" height="34.9"/>
<rect x="282.2" y="182.3" class="st0" width="19.7" height="34.9"/>
<rect x="352.2" y="182.3" class="st0" width="6.3" height="34.9"/>
<path class="st0" d="M352.2,178.4h6.3v-15.9c0-4.2,3-6.4,7.7-5.7c0,0,2.2,0.5,5.7,1.3l0,0c-0.3-0.1-0.6-0.1-0.8-0.2
	c0.2-0.2,0.5-0.3,0.8-0.5v-13.8h-19.7V178.4z"/>
<path class="st0" d="M398.9,161.5c7.4,0.8,14.8,0.9,19.7-1v-16.9h-19.7V161.5z"/>
<path class="st0" d="M375.6,157c2.4,0.7,10.6,2.8,19.7,4.1v-17.5h-19.7V157z"/>
<path class="st0" d="M389.2,213.1l8.7-4.6l8.7,4.6l-1.7-9.6l7-6.8l-7-1c-5.2,5.2-10.6,10.6-15.3,15.1L389.2,213.1z"/>
<path class="st0" d="M247.1,101.2h175.2v57.2c3.8-3,5.1-6.7,5.5-8.8c-0.1,0.9-0.3,1.8-0.6,2.6c0.5-1.3,0.8-2.5,0.8-3.9
	c0,1,0,2.9,0,5v0.1V95.5H243.7C244.9,97.3,246,99.3,247.1,101.2z"/>
<path class="st0" d="M281.8,220.8v5.7h69.1h0.1l0,0c3.1-0.7,5.9-2.2,6.9-5.7H281.8z"/>
<path class="st0" d="M422.2,177.9v38.8c0,2.3-1.9,4.2-4.2,4.2h-38.9c-0.6,0.5-1,0.9-1.2,1.1c-5.2,4-15.3,4.6-20.3,4.6h64
	c3.5,0,6.3-2.8,6.3-6.3v-60.5c-0.2,5.2-1,11.9-4.1,16.1C423.6,176.3,423,177,422.2,177.9z"/>
<path class="st0" d="M371.9,210c-2.7,2.7-5.1,5.1-7.2,7.2l0,0C366.8,215.1,369.2,212.7,371.9,210L371.9,210z"/>
<path class="st0" d="M418.6,163.2c-3.5,3.5-8.9,9-15.2,15.3h0.1C409.7,172.2,415.1,166.7,418.6,163.2L418.6,163.2z"/>
<path class="st1" d="M428,153.3v6.5C428.1,156.9,428,154.5,428,153.3z"/>
<path class="st1" d="M427.1,152.3c0-0.1,0.1-0.1,0.1-0.2C427.1,152.2,427.1,152.3,427.1,152.3z"/>
<path class="st1" d="M357.1,224.6L357.1,224.6L357.1,224.6z"/>
<path class="st1" d="M350.7,226.6c1.3,0,3,0,4.9,0c0.5,0,1.2,0,2,0H351C350.9,226.6,350.8,226.6,350.7,226.6z"/>
<path class="st1" d="M422.5,159.2c0.7-0.7,1.4-1.5,2-2.3C423.9,157.6,423.2,158.4,422.5,159.2z"/>
<path class="st1" d="M425.2,155.8c0.3-0.5,0.6-0.9,0.9-1.4C425.8,154.9,425.5,155.3,425.2,155.8z"/>
<g>
	<path class="st1" d="M428,95.5v124.8c0,3.5-2.8,6.3-6.3,6.3H281.8v4.4l142.9,0.9c3.5,0,6.3-2.8,6.3-6.3L428,95.5z"/>
	<path class="st1" d="M375.6,157c-0.5-0.1-0.8-0.2-0.8-0.2c-1.2-0.2-2.1,0.1-2.9,0.6v0.7c1.1,0.2,2.4,0.5,3.7,0.8L375.6,157
		L375.6,157z"/>
	<path class="st1" d="M378.4,159.4c-1-0.2-1.9-0.4-2.9-0.6l0,0C376.5,159,377.4,159.2,378.4,159.4z"/>
	<path class="st1" d="M398.9,161.5c-1.2-0.1-2.5-0.3-3.7-0.5v0.9c1.3,0.1,2.5,0.2,3.7,0.3V161.5z"/>
	<path class="st1" d="M401.1,162.5c-0.7-0.1-1.5-0.1-2.2-0.2v0.1C399.7,162.5,400.4,162.5,401.1,162.5z"/>
	<path class="st1" d="M389.7,210.7l1.2-7.3l-6.3-6.1c-4.5,4.5-8.8,8.8-12.7,12.7v7.2h-7.2c-1.4,1.4-2.6,2.6-3.7,3.7h18.2
		C381.1,219.1,384.9,215.3,389.7,210.7z"/>
	<path class="st1" d="M397.9,186.4l4.3,8.8l2.7,0.4c7.4-7.4,14.2-14.3,17.3-17.7v-18.4c-0.5,0.6-1.8,1.9-3.7,3.8v15.2h-15.1
		c-5.6,5.6-11.8,11.9-17.9,17.9l8-1.2L397.9,186.4z"/>
</g>
<g>
	<path class="st2" d="M398.9,161.5v0.9c0.8,0.1,1.5,0.1,2.2,0.2c1,0.1,2,0.1,2.9,0.2c0.7,0,1.4,0,2.1,0c1.1,0,2.1,0,3-0.1
		c0.5,0,1.1,0,1.6-0.1c1.4-0.1,2.8-0.3,3.9-0.6c1.2-0.3,2.2-0.7,3.1-1.1c0.3-0.1,0.5-0.2,0.7-0.3v-0.1
		C413.7,162.4,406.3,162.3,398.9,161.5z"/>
	<path class="st2" d="M388.8,161.1c0.7,0.1,1.3,0.2,2,0.3c1.2,0.2,2.4,0.3,3.7,0.5c0.3,0,0.5,0.1,0.8,0.1v-0.9
		c-9.1-1.3-17.2-3.4-19.7-4.1v1.8c0.9,0.2,1.9,0.4,2.9,0.6c0.5,0.1,1,0.2,1.6,0.3c1.1,0.2,2.2,0.4,3.3,0.6c0.6,0.1,1.3,0.2,1.9,0.3
		C386.4,160.8,387.6,161,388.8,161.1z"/>
	<path class="st2" d="M397.9,186.4l-4.3,8.8l-8,1.2c-0.3,0.3-0.6,0.6-0.9,0.9l6.3,6.1l-1.2,7.3c4.7-4.6,10.1-9.9,15.3-15.1l-2.7-0.4
		L397.9,186.4z"/>
	<path class="st2" d="M428,153.3c0-2.2,0-4,0-5c-0.1,1.4-0.3,2.6-0.8,3.9c0,0.1-0.1,0.1-0.1,0.2c-0.2,0.5-0.3,0.9-0.6,1.4
		c-0.1,0.2-0.3,0.4-0.4,0.6c-0.3,0.5-0.6,0.9-0.9,1.4c-0.2,0.3-0.4,0.7-0.7,1c-0.6,0.8-1.3,1.6-2,2.3c0,0.1-0.2,0.2-0.3,0.3v18.4
		c0.8-0.8,1.4-1.6,1.7-1.9c3.1-4.2,3.9-10.9,4.1-16.1L428,153.3L428,153.3z"/>
	<path class="st2" d="M357.2,224.5C357.1,224.6,357.1,224.6,357.2,224.5c-0.3,0.3-0.4,0.4-0.5,0.4c-0.9,0.7-2.1,1.2-3.7,1.4
		c-0.6,0.1-1.2,0.1-1.8,0.2l0,0c-0.1,0-0.1,0-0.1,0h6.6c5-0.1,15.1-0.6,20.3-4.6c0.2-0.2,0.6-0.6,1.2-1.1H361
		C359.1,222.7,357.8,223.9,357.2,224.5z"/>
	<path class="st2" d="M371.9,210c-2.7,2.7-5.1,5.1-7.2,7.2h7.2V210z"/>
	<path class="st2" d="M418.6,178.4v-15.2c-3.5,3.5-8.9,9-15.1,15.2H418.6z"/>
</g>
<g>
	<path class="st4" d="M124.3,26.8l23.8,0l0-11.6c-0.5-6.2-5.7-11-11.9-11c-6.6,0-11.9,5.4-11.9,12.1L124.3,26.8z"/>
	<path class="st4" d="M157.6,21.3c0-4,3.2-6.8,6.9-6.8c3.8,0,6.9,3.2,6.9,7.1v5.3h-13.8V21.3z"/>
	<path class="st4" d="M101.3,21.3c0-4,3.2-6.8,6.9-6.8c3.8,0,6.9,3.2,6.9,7.1v5.3h-13.8L101.3,21.3z"/>
	<polygon class="st4" points="88.8,58.5 184.2,58.5 172.2,47.9 100.7,47.9 	"/>
	<polygon class="st4" points="171.4,31.6 101.3,31.6 101.3,43.7 171.4,43.7 	"/>
	<polygon class="st4" points="253.7,230.8 19.6,230.8 19.6,214.8 253.7,214.8 253.7,230.8 	"/>
	<polygon class="st4" points="262.9,210 10,210 10,197.7 262.9,197.7 	"/>
	<path class="st4" d="M146.4,63.2h-10.3h-10.3c-11.9,35.2-17.9,68.2-17.9,99.5c0,2.9,0,5.8,0.1,9.1v20.8h28.1h28.1v-20.8
		c0.1-3.2,0.1-6.2,0.1-9.1C164.3,131.5,158.3,98.5,146.4,63.2z"/>
	<path class="st4" d="M188,63.2c0,0,65.7,49.1,59.1,129.3h-22.8c0,0,10.7-74.7-49.6-129.3L188,63.2z"/>
	<path class="st4" d="M169.8,63.2c29.5,33.7,45.6,76.4,43.9,126.7v2.6l0,0h-36.8l-0.1-4c0-1.9,0-5.6,0-7.3
		c-0.4-56.7-6.6-83.6-23.5-118H169.8z"/>
	<path class="st4" d="M84.4,63.2c0,0-65.7,49.1-59.1,129.3h22.8c0,0-10.7-74.7,49.6-129.3L84.4,63.2z"/>
	<path class="st4" d="M119,63.2c-16.9,34.4-23,61.3-23.5,118c0,1.7-0.1,5.5,0,7.3l-0.1,4H58.7l0,0V190c-1.7-50.3,14.4-93,43.9-126.7
		H119z"/>
</g>
</svg>
