<svg xmlns="http://www.w3.org/2000/svg" viewBox="0 0 1340 258.88"><defs><style>.cls-1{isolation:isolate;}.cls-2{fill:#042852;}.cls-3{fill:#b1b1b6;}.cls-4,.cls-5{fill:#fff;}.cls-5{stroke:#fff;stroke-miterlimit:10;stroke-width:0.26px;}.cls-6{fill:#9c9c9c;mix-blend-mode:multiply;}</style></defs><title>logo-eventos-alerj</title><g class="cls-1"><g id="Layer_1" data-name="Layer 1"><path class="cls-2" d="M463.36,241.4V82.16H565.12v21.7h-77.6v46.52h66.2v21.46h-66.2v47.87h77.6V241.4Z" transform="translate(-11 -10.65)"/><path class="cls-2" d="M649.66,241.4H630.87L578.54,82.16h25.05L640.27,198,676.94,82.16h25.5Z" transform="translate(-11 -10.65)"/><path class="cls-2" d="M718.62,241.4V82.16H820.38v21.7H742.77v46.52H809v21.46h-66.2v47.87h77.61V241.4Z" transform="translate(-11 -10.65)"/><path class="cls-2" d="M939.72,241.4l-73.58-112V241.4H842V82.16h22.14L937.71,194V82.16h24.15V241.4Z" transform="translate(-11 -10.65)"/><path class="cls-2" d="M1045.87,103.86V241.4h-24.15V103.86H977.88V82.16h111.83v21.7Z" transform="translate(-11 -10.65)"/><path class="cls-2" d="M1221.21,182.47a113.83,113.83,0,0,1-1.56,16.88,54.13,54.13,0,0,1-4.47,14.09,45.38,45.38,0,0,1-9,12.3,57.59,57.59,0,0,1-18.79,12.64,60.09,60.09,0,0,1-23.26,4.36,59.23,59.23,0,0,1-23.14-4.36,57.89,57.89,0,0,1-18.68-12.64,44.91,44.91,0,0,1-8.94-12.3,56.65,56.65,0,0,1-4.59-14.09,102.29,102.29,0,0,1-1.67-16.88q-.24-9.28-.23-20.69t.23-20.69a102.51,102.51,0,0,1,1.67-16.88,56.65,56.65,0,0,1,4.59-14.09,45.06,45.06,0,0,1,8.94-12.3A57.89,57.89,0,0,1,1141,85.18a59.23,59.23,0,0,1,23.14-4.36,60.09,60.09,0,0,1,23.26,4.36,57.59,57.59,0,0,1,18.79,12.64,45.53,45.53,0,0,1,9,12.3,54.13,54.13,0,0,1,4.47,14.09,114.09,114.09,0,0,1,1.56,16.88q.22,9.28.23,20.69T1221.21,182.47ZM1197,141.76a100.08,100.08,0,0,0-1.34-13.41,33.67,33.67,0,0,0-2.91-9.17,30.71,30.71,0,0,0-4.81-6.83,31.64,31.64,0,0,0-10.4-7.15,34.25,34.25,0,0,0-26.61,0,31.43,31.43,0,0,0-10.4,7.15,30.39,30.39,0,0,0-4.81,6.83,33,33,0,0,0-2.91,9.17,98.46,98.46,0,0,0-1.34,13.41q-.35,8-.33,20t.33,20a98.79,98.79,0,0,0,1.34,13.42,32.92,32.92,0,0,0,2.91,9.16,29.89,29.89,0,0,0,4.81,6.82,31.31,31.31,0,0,0,10.4,7.16,34.25,34.25,0,0,0,26.61,0,31.51,31.51,0,0,0,10.4-7.16,30.2,30.2,0,0,0,4.81-6.82,33.59,33.59,0,0,0,2.91-9.16A100.42,100.42,0,0,0,1197,181.8q.33-7.94.33-20T1197,141.76Z" transform="translate(-11 -10.65)"/><path class="cls-2" d="M1346.75,215.68a42.39,42.39,0,0,1-11.85,14.76,53.17,53.17,0,0,1-18.12,9.17,80.38,80.38,0,0,1-23,3.13q-18.1,0-31.53-4.7t-24.82-16.32l16.1-15.88q8.71,8.72,18.56,12a70.29,70.29,0,0,0,22.14,3.25q15.66,0,24.27-6.38t8.61-18q0-10.95-6.26-16.55a20.35,20.35,0,0,0-6.71-4.25,59.25,59.25,0,0,0-10.74-2.46l-18.78-2.68q-19.45-2.68-30.2-12.75-11.62-10.95-11.62-30.42a47.64,47.64,0,0,1,3.68-18.89A43.08,43.08,0,0,1,1257,93.79a46.47,46.47,0,0,1,16.66-9.62A69.28,69.28,0,0,1,1296,80.82q15.88,0,27.51,4.25a64.77,64.77,0,0,1,21.92,13.86L1330,114.14a39,39,0,0,0-16-9.72,64.88,64.88,0,0,0-18.68-2.58q-14.08,0-21.58,7a23.34,23.34,0,0,0-7.49,17.78,22.06,22.06,0,0,0,1.45,8.16,17.93,17.93,0,0,0,4.59,6.6q6.26,5.59,17.89,7.38l18.11,2.68a81.77,81.77,0,0,1,17.9,4.59,43,43,0,0,1,11.85,7.27,36.65,36.65,0,0,1,9.73,14.08A50.6,50.6,0,0,1,1351,196,44.42,44.42,0,0,1,1346.75,215.68Z" transform="translate(-11 -10.65)"/><path class="cls-3" d="M418.19,248.16l-249.62-1.58a6.25,6.25,0,0,1-6.25-6.26V113.66h259l3.12,128.24A6.25,6.25,0,0,1,418.19,248.16Z" transform="translate(-11 -10.65)"/><path class="cls-2" d="M142.31,103h268a0,0,0,0,1,0,0V231.16a1.09,1.09,0,0,1-1.09,1.09H143.4a1.09,1.09,0,0,1-1.09-1.09V103A0,0,0,0,1,142.31,103Z"/><path class="cls-2" d="M143.4,71.29H409.23a1.09,1.09,0,0,1,1.09,1.09v28.39a0,0,0,0,1,0,0h-268a0,0,0,0,1,0,0V72.37A1.09,1.09,0,0,1,143.4,71.29Z"/><path class="cls-4" d="M228.33,49.92H345.58a.72.72,0,0,1,.72.72V305.93a.72.72,0,0,1-.72.72H228.33a0,0,0,0,1,0,0V49.92A0,0,0,0,1,228.33,49.92Z" transform="translate(454.59 -119.69) rotate(90)"/><circle class="cls-4" cx="186.77" cy="86.02" r="9.91"/><circle class="cls-4" cx="365.86" cy="86.02" r="9.91"/><rect class="cls-5" x="184.22" y="59.39" width="5.1" height="24.58" rx="0.44"/><rect class="cls-2" x="184.22" y="59.39" width="5.1" height="24.58" rx="0.44"/><rect class="cls-5" x="363.31" y="59.39" width="5.1" height="24.58" rx="0.44"/><rect class="cls-2" x="363.31" y="59.39" width="5.1" height="24.58" rx="0.44"/><rect class="cls-3" x="151.57" y="112.26" width="19.38" height="34.36"/><rect class="cls-2" x="174.58" y="112.26" width="19.38" height="34.36"/><rect class="cls-2" x="197.59" y="112.26" width="19.38" height="34.36"/><rect class="cls-2" x="220.6" y="112.26" width="19.38" height="34.36"/><rect class="cls-2" x="243.61" y="112.26" width="19.38" height="34.36"/><rect class="cls-2" x="266.62" y="112.26" width="19.38" height="34.36"/><rect class="cls-2" x="289.63" y="112.26" width="19.38" height="34.36"/><rect class="cls-2" x="312.64" y="112.26" width="19.38" height="34.36"/><rect class="cls-2" x="335.65" y="112.26" width="19.38" height="34.36"/><rect class="cls-2" x="358.67" y="112.26" width="19.38" height="34.36"/><rect class="cls-2" x="381.68" y="112.26" width="19.38" height="34.36"/><rect class="cls-2" x="151.57" y="150.45" width="19.38" height="34.36"/><rect class="cls-2" x="174.58" y="150.45" width="19.38" height="34.36"/><rect class="cls-2" x="197.59" y="150.45" width="19.38" height="34.36"/><rect class="cls-2" x="220.6" y="150.45" width="19.38" height="34.36"/><rect class="cls-2" x="243.61" y="150.45" width="19.38" height="34.36"/><rect class="cls-2" x="266.62" y="150.45" width="19.38" height="34.36"/><rect class="cls-2" x="289.63" y="150.45" width="19.38" height="34.36"/><rect class="cls-2" x="312.64" y="150.45" width="19.38" height="34.36"/><rect class="cls-2" x="335.65" y="150.45" width="19.38" height="34.36"/><rect class="cls-2" x="358.67" y="150.45" width="19.38" height="34.36"/><rect class="cls-2" x="381.68" y="150.45" width="19.38" height="34.36"/><path class="cls-2" d="M151.57,188.63h19.38a0,0,0,0,1,0,0V223a0,0,0,0,1,0,0H152.16a.59.59,0,0,1-.59-.59V188.63A0,0,0,0,1,151.57,188.63Z"/><rect class="cls-2" x="174.58" y="188.63" width="19.38" height="34.36"/><rect class="cls-2" x="197.59" y="188.63" width="19.38" height="34.36"/><rect class="cls-2" x="220.6" y="188.63" width="19.38" height="34.36"/><rect class="cls-2" x="243.61" y="188.63" width="19.38" height="34.36"/><rect class="cls-2" x="266.62" y="188.63" width="19.38" height="34.36"/><rect class="cls-2" x="289.63" y="188.63" width="19.38" height="34.36"/><rect class="cls-2" x="312.64" y="188.63" width="19.38" height="34.36"/><rect class="cls-2" x="335.65" y="188.63" width="19.38" height="34.36"/><rect class="cls-3" x="358.67" y="188.63" width="19.38" height="34.36"/><path class="cls-3" d="M381.68,188.63h19.38a0,0,0,0,1,0,0V222.4a.59.59,0,0,1-.59.59H381.68a0,0,0,0,1,0,0V188.63A0,0,0,0,1,381.68,188.63Z"/><path class="cls-6" d="M345.5,241.19s-4.83,1.72-8,1.72H345c3.95,0,8.88-1.41,11.41-3.93s55.29-55,59.23-59.24a23.38,23.38,0,0,0,5.69-14.16v-6.24c0,2.13-1.71,7.75-5.84,11.88Z" transform="translate(-11 -10.65)"/><path class="cls-6" d="M409.68,171.81c-16,1.44-44.9-3.11-44.9-3.11a7.93,7.93,0,0,0-4,1.23C369.61,172,398.72,179.22,409.68,171.81Z" transform="translate(-11 -10.65)"/><path class="cls-4" d="M406.72,173.18c-13.81,3.66-51.09-4.48-51.09-4.48a8.16,8.16,0,0,0-8.16,8.16v56.5c0,11-12.34,9.55-16.51,9.55h8.25a10.29,10.29,0,0,0,6.34-1.72c1.4-1,68-67.87,70-70,3-3.26,5.84-8.29,5.84-11.88v-6.83C421.36,156.68,422.48,169,406.72,173.18Z" transform="translate(-11 -10.65)"/><path class="cls-4" d="M261.94,197.14V197c0-.54-.05-5.31-.56-15.63l-.13-3.68c0-.26-.09-.51-.12-.76-1.62-26.66-12.45-50.71-26.1-70.34-.83-1.23-1.71-2.42-2.57-3.63-1.1-1.49-2.2-3-3.32-4.39q-2.92-3.8-6.11-7.4c-1.21-1.41-2.44-2.77-3.66-4.11-.54-.57-1-1.19-1.57-1.75l-.37-.36c-20.43-21.64-28-26.55-28.16-26.66l0,0-.12-21.21a17.53,17.53,0,0,0-17.69-16.54l-.12,0-.15,0a18,18,0,0,0-7.36,1.61,22.53,22.53,0,0,0-19.51-11.5l-.16,0-.17,0a22.53,22.53,0,0,0-19.51,11.5,18,18,0,0,0-7.36-1.61l-.15,0-.12,0A17.53,17.53,0,0,0,99.14,37.08L99,58.29l0,0c-.17.11-7.72,5-28.15,26.66l-.38.36c-.55.56-1,1.18-1.57,1.75-1.22,1.34-2.44,2.7-3.66,4.11q-3.18,3.61-6.11,7.4C58,100,56.91,101.49,55.82,103c-.87,1.21-1.75,2.4-2.58,3.63C39.59,126.23,28.76,150.29,27.14,177c0,.25-.09.5-.12.76l-.13,3.68c-.51,10.32-.56,15.09-.56,15.63v.12H11v72.4H277.27v-72.4Z" transform="translate(-11 -10.65)"/><rect class="cls-2" x="240.48" y="209.7" width="6.04" height="15.46"/><rect class="cls-2" x="20.82" y="209.7" width="6.01" height="15.46"/><rect class="cls-2" x="11.51" y="242.01" width="243.96" height="5.72"/><rect class="cls-2" x="224.29" y="209.7" width="8.28" height="15.46"/><rect class="cls-2" x="205.92" y="209.7" width="10.46" height="15.46"/><rect class="cls-2" x="187.73" y="209.7" width="10.29" height="15.46"/><rect class="cls-2" x="168.46" y="209.7" width="11.36" height="15.46"/><rect class="cls-2" x="148.35" y="209.7" width="12.21" height="15.46"/><rect class="cls-2" x="126.72" y="209.7" width="13.73" height="15.46"/><rect class="cls-2" x="106.67" y="209.7" width="12.15" height="15.46"/><rect class="cls-2" x="87.52" y="209.7" width="11.24" height="15.46"/><rect class="cls-2" x="69.29" y="209.7" width="10.33" height="15.46"/><rect class="cls-2" x="50.94" y="209.7" width="10.43" height="15.46"/><rect class="cls-2" x="34.74" y="209.7" width="8.3" height="15.46"/><rect class="cls-2" x="11.51" y="231.52" width="243.96" height="5.71"/><rect class="cls-2" x="11.51" y="197.65" width="243.96" height="5.71"/><rect class="cls-2" x="106.53" y="187.63" width="54.57" height="5.04"/><rect class="cls-2" x="106.53" y="178.39" width="54.57" height="5.03"/><rect class="cls-2" x="172.43" y="178.22" width="35.83" height="5.04"/><rect class="cls-2" x="172.43" y="187.8" width="35.83" height="5.05"/><rect class="cls-2" x="219.32" y="187.79" width="20.82" height="5.06"/><rect class="cls-2" x="219.32" y="178.21" width="20.82" height="5.06"/><rect class="cls-2" x="26.84" y="178.21" width="20.85" height="5.06"/><rect class="cls-2" x="26.84" y="187.79" width="20.85" height="5.07"/><path class="cls-2" d="M171.6,184.08l0-.58q.13-4.38.13-8.81c0-29.41-5.73-60.09-17.8-95.93H134.63c-11.48,34-17.26,65.81-17.26,96,0,2.82,0,5.64.12,8.75v.6Z" transform="translate(-11 -10.65)"/><path class="cls-2" d="M183.19,184.08H218.7l0-.81c-2.37-40.24-16.93-76.41-42-104.51H160.76c14.68,28.84,22.5,62.84,22.5,99.4,0,1.66,0,3.5-.07,5.31Z" transform="translate(-11 -10.65)"/><path class="cls-2" d="M230.3,183.5l0,.59h20.85l-.06-.67c-3.76-42-24.08-79.26-57-104.66H181.32A153.58,153.58,0,0,1,230.3,183.5Z" transform="translate(-11 -10.65)"/><path class="cls-2" d="M58.72,183.5a153.53,153.53,0,0,1,49-104.73H94.85C62,104.16,41.66,141.4,37.9,183.42l-.06.67H58.69Z" transform="translate(-11 -10.65)"/><rect class="cls-2" x="59.33" y="178.22" width="35.84" height="5.04"/><rect class="cls-2" x="59.33" y="187.8" width="35.84" height="5.05"/><path class="cls-2" d="M112.36,78.76c-25.08,28.1-39.64,64.27-42,104.51l0,.81h35.51l0-.61c0-1.81-.06-3.65-.06-5.31,0-36.56,7.82-70.56,22.5-99.4Z" transform="translate(-11 -10.65)"/><rect class="cls-2" x="142.31" y="37.58" width="10.93" height="11.65"/><rect class="cls-2" x="99.53" y="37.58" width="10.22" height="11.65"/><rect class="cls-2" x="113.39" y="37.58" width="10.42" height="11.65"/><rect class="cls-2" x="157.42" y="37.58" width="9.8" height="11.65"/><rect class="cls-2" x="127.85" y="37.58" width="10.56" height="11.65"/><path class="cls-2" d="M155.77,32.45a11.48,11.48,0,0,0-22.93,1.06l0,10.13,23,0Z" transform="translate(-11 -10.65)"/><path class="cls-2" d="M178.22,38.5a6.75,6.75,0,0,0-6.7-6.8,6.51,6.51,0,0,0-6.65,6.59v5.34h13.35Z" transform="translate(-11 -10.65)"/><path class="cls-2" d="M123.88,43.63V38.5a6.76,6.76,0,0,0-6.69-6.8,6.52,6.52,0,0,0-6.66,6.59v5.34Z" transform="translate(-11 -10.65)"/><path class="cls-2" d="M137.5,67.21h13.6l-1-3.27-11.75,0C138.13,64.74,137.84,65.89,137.5,67.21Z" transform="translate(-11 -10.65)"/><path class="cls-2" d="M135.64,74.19h17.42c-.35-1.12-.71-2.27-1-3.29H136.66C136.32,72,136,73.12,135.64,74.19Z" transform="translate(-11 -10.65)"/><path class="cls-2" d="M154.51,63.94l1.62,3.28h11.93c-1.84-2-3.12-3.28-3.12-3.28Z" transform="translate(-11 -10.65)"/><path class="cls-2" d="M173.94,74.18c-1-1.12-2.05-2.23-3.05-3.3H157.64l1.63,3.3Z" transform="translate(-11 -10.65)"/><path class="cls-2" d="M172.5,67.21h10.4L179,63.94h-9.7C170.45,65.12,171.5,66.15,172.5,67.21Z" transform="translate(-11 -10.65)"/><path class="cls-2" d="M178.55,74.19h12c-1.34-1.1-2.89-2.37-4-3.32H175.36C176.4,72,177.57,73.17,178.55,74.19Z" transform="translate(-11 -10.65)"/><path class="cls-2" d="M115.06,74.18h14.68l1.63-3.31H118.11C117.12,71.94,116.09,73.06,115.06,74.18Z" transform="translate(-11 -10.65)"/><path class="cls-2" d="M134.5,63.94H123.8s-1,1.32-2.84,3.27h11.92Z" transform="translate(-11 -10.65)"/><path class="cls-2" d="M113.63,70.88H102.48l-4,3.31h12Z" transform="translate(-11 -10.65)"/><path class="cls-2" d="M119.7,63.94H110s-1.49,1.26-3.9,3.27H116.5S118.66,65.06,119.7,63.94Z" transform="translate(-11 -10.65)"/></g></g></svg>